<svg width="284px" height="332px" viewBox="0 0 284 332" version="1.1" xmlns="http://www.w3.org/2000/svg" xmlns:xlink="http://www.w3.org/1999/xlink">
    <!-- Generator: Sketch 50.2 (55047) - http://www.bohemiancoding.com/sketch -->
    <desc>Created with Sketch.</desc>
    <defs></defs>
    <g id="Page-1" stroke="none" stroke-width="1" fill="none" fill-rule="evenodd">
        <g id="Vectory-Version---light-reverse" transform="translate(-110.000000, -84.000000)" fill="#FFFFFF">
            <g id="Group" transform="translate(110.000000, 84.000000)">
                <path d="M159.149758,331.048193 C67.68438,331.048193 0,258.34562 0,166.438594 L0,165.524096 C0,74.9888171 67.68438,0 160.064412,0 C213.114332,0 246.499195,18.2899554 277.597424,44.8103907 C279.884058,47.0966352 282.170692,50.2973774 282.170692,54.4126173 C282.170692,60.8141017 276.225443,66.3010883 269.822866,66.3010883 C266.621578,66.3010883 263.42029,64.9293417 261.590982,63.1003461 C235.066023,38.8661552 204.425121,21.4906976 159.607085,21.4906976 C82.7761675,21.4906976 24.6956522,84.1337948 24.6956522,164.609599 L24.6956522,165.524096 C24.6956522,246.457149 83.6908213,309.557495 160.064412,309.557495 C203.510467,309.557495 234.151369,294.011033 264.334944,265.204353 C266.164251,263.375358 268.908213,261.546362 272.566828,261.546362 C278.512077,261.546362 284,267.033349 284,272.977584 C284,276.635575 282.170692,279.379069 280.341385,281.208064 C247.871176,311.386491 212.657005,331.048193 159.149758,331.048193 Z" id="C"></path>
                <path d="M94.9518072,226.469267 L94.9518072,98.5909741 C94.9518072,94.3283643 98.6058623,90.6746988 102.868926,90.6746988 L104.695954,90.6746988 C108.147006,90.6746988 110.583043,92.5015315 112.207067,94.9373086 L162.957831,171.258321 L213.708596,94.9373086 C215.33262,92.2985501 217.97166,90.6746988 221.219709,90.6746988 L223.046736,90.6746988 C227.3098,90.6746988 230.963855,94.3283643 230.963855,98.5909741 L230.963855,226.266285 C230.963855,230.731877 227.3098,234.385542 223.046736,234.385542 C218.580669,234.385542 214.926614,230.528895 214.926614,226.266285 L214.926614,120.309986 L169.453929,187.090872 C167.626902,189.72963 165.596871,191.1505 162.754828,191.1505 C159.912785,191.1505 157.679752,189.72963 155.852724,187.090872 L110.583043,120.512967 L110.583043,226.469267 C110.583043,230.934858 107.131991,234.385542 102.665923,234.385542 C98.4028592,234.385542 94.9518072,230.934858 94.9518072,226.469267 Z" id="M"></path>
            </g>
        </g>
    </g>
</svg>
